HIERARCHY
ROOT Hips
{
	OFFSET -14.64140 90.27770 -84.91600
	CHANNELS 6 Xposition Yposition Zposition Zrotation Xrotation Yrotation
	JOINT Spine
	{
		OFFSET 0.00000 13.20850 -1.60436
		CHANNELS 3 Zrotation Xrotation Yrotation
		JOINT Spine1
		{
			OFFSET 0.00000 8.61716 0.00000
			CHANNELS 3 Zrotation Xrotation Yrotation
			JOINT Spine2
			{
				OFFSET 0.00000 8.61717 0.00000
				CHANNELS 3 Zrotation Xrotation Yrotation
				JOINT Spine3
				{
					OFFSET 0.00000 8.61717 0.00000
					CHANNELS 3 Zrotation Xrotation Yrotation
					JOINT Neck
					{
						OFFSET 0.00000 11.07920 1.10792
						CHANNELS 3 Zrotation Xrotation Yrotation
						JOINT Neck1
						{
							OFFSET 0.00000 7.08032 0.00000
							CHANNELS 3 Zrotation Xrotation Yrotation
							JOINT Head
							{
								OFFSET 0.00000 7.08031 0.00000
								CHANNELS 3 Zrotation Xrotation Yrotation
								End site
								{
									OFFSET 0.00000 0.00000 0.00000
								}
							}
						}
					}
					JOINT RightShoulder
					{
						OFFSET -0.01000 7.91373 5.19711
						CHANNELS 3 Zrotation Xrotation Yrotation
						JOINT RightArm
						{
							OFFSET -18.41580 0.00000 0.00000
							CHANNELS 3 Zrotation Xrotation Yrotation
							JOINT RightForeArm
							{
								OFFSET -29.11090 0.00000 0.00000
								CHANNELS 3 Zrotation Xrotation Yrotation
								JOINT RightHand
								{
									OFFSET -24.65040 0.00000 0.00000
									CHANNELS 3 Zrotation Xrotation Yrotation
									JOINT RightHandThumb1
									{
										OFFSET -5.35114 -0.85590 3.97906
										CHANNELS 3 Zrotation Xrotation Yrotation
										JOINT RightHandThumb2
										{
											OFFSET -4.52789 0.00000 0.00000
											CHANNELS 3 Zrotation Xrotation Yrotation
											JOINT RightHandThumb3
											{
												OFFSET -2.46976 0.00000 0.00000
												CHANNELS 3 Zrotation Xrotation Yrotation
												End site
												{
													OFFSET 0.00000 0.00000 0.00000
												}
											}
										}
									}
									JOINT RightHandIndex1
									{
										OFFSET -14.26970 0.00000 2.88139
										CHANNELS 3 Zrotation Xrotation Yrotation
										JOINT RightHandIndex2
										{
											OFFSET -5.48836 0.00000 0.00000
											CHANNELS 3 Zrotation Xrotation Yrotation
											JOINT RightHandIndex3
											{
												OFFSET -3.01859 0.00000 0.00000
												CHANNELS 3 Zrotation Xrotation Yrotation
												End site
												{
													OFFSET 0.00000 0.00000 0.00000
												}
											}
										}
									}
									JOINT RightHandMiddle1
									{
										OFFSET -14.26970 0.00000 -0.09147
										CHANNELS 3 Zrotation Xrotation Yrotation
										JOINT RightHandMiddle2
										{
											OFFSET -6.17441 0.00000 0.00000
											CHANNELS 3 Zrotation Xrotation Yrotation
											JOINT RightHandMiddle3
											{
												OFFSET -3.56743 0.00000 0.00000
												CHANNELS 3 Zrotation Xrotation Yrotation
												End site
												{
													OFFSET 0.00000 0.00000 0.00000
												}
											}
										}
									}
									JOINT RightHandRing1
									{
										OFFSET -12.69180 0.00000 -3.06433
										CHANNELS 3 Zrotation Xrotation Yrotation
										JOINT RightHandRing2
										{
											OFFSET -5.62556 0.00000 0.00000
											CHANNELS 3 Zrotation Xrotation Yrotation
											JOINT RightHandRing3
											{
												OFFSET -3.56744 0.00000 0.00000
												CHANNELS 3 Zrotation Xrotation Yrotation
												End site
												{
													OFFSET 0.00000 0.00000 0.00000
												}
											}
										}
									}
									JOINT RightHandPinky1
									{
										OFFSET -11.11390 0.00000 -6.03719
										CHANNELS 3 Zrotation Xrotation Yrotation
										JOINT RightHandPinky2
										{
											OFFSET -4.52789 0.00000 0.00000
											CHANNELS 3 Zrotation Xrotation Yrotation
											JOINT RightHandPinky3
											{
												OFFSET -2.46976 0.00000 0.00000
												CHANNELS 3 Zrotation Xrotation Yrotation
												End site
												{
													OFFSET 0.00000 0.00000 0.00000
												}
											}
										}
									}
								}
							}
						}
					}
					JOINT LeftShoulder
					{
						OFFSET 0.01000 7.91373 5.19711
						CHANNELS 3 Zrotation Xrotation Yrotation
						JOINT LeftArm
						{
							OFFSET 18.41580 0.00000 0.00000
							CHANNELS 3 Zrotation Xrotation Yrotation
							JOINT LeftForeArm
							{
								OFFSET 29.11090 0.00000 0.00000
								CHANNELS 3 Zrotation Xrotation Yrotation
								JOINT LeftHand
								{
									OFFSET 24.65040 0.00000 0.00000
									CHANNELS 3 Zrotation Xrotation Yrotation
									JOINT LeftHandThumb1
									{
										OFFSET 5.35114 -0.85590 3.97906
										CHANNELS 3 Zrotation Xrotation Yrotation
										JOINT LeftHandThumb2
										{
											OFFSET 4.52789 0.00000 0.00000
											CHANNELS 3 Zrotation Xrotation Yrotation
											JOINT LeftHandThumb3
											{
												OFFSET 2.46977 0.00000 0.00000
												CHANNELS 3 Zrotation Xrotation Yrotation
												End site
												{
													OFFSET 0.00000 0.00000 0.00000
												}
											}
										}
									}
									JOINT LeftHandIndex1
									{
										OFFSET 14.26970 0.00000 2.88139
										CHANNELS 3 Zrotation Xrotation Yrotation
										JOINT LeftHandIndex2
										{
											OFFSET 5.48836 0.00000 0.00000
											CHANNELS 3 Zrotation Xrotation Yrotation
											JOINT LeftHandIndex3
											{
												OFFSET 3.01859 0.00000 0.00000
												CHANNELS 3 Zrotation Xrotation Yrotation
												End site
												{
													OFFSET 0.00000 0.00000 0.00000
												}
											}
										}
									}
									JOINT LeftHandMiddle1
									{
										OFFSET 14.26970 0.00000 -0.09147
										CHANNELS 3 Zrotation Xrotation Yrotation
										JOINT LeftHandMiddle2
										{
											OFFSET 6.17440 0.00000 0.00000
											CHANNELS 3 Zrotation Xrotation Yrotation
											JOINT LeftHandMiddle3
											{
												OFFSET 3.56744 0.00000 0.00000
												CHANNELS 3 Zrotation Xrotation Yrotation
												End site
												{
													OFFSET 0.00000 0.00000 0.00000
												}
											}
										}
									}
									JOINT LeftHandRing1
									{
										OFFSET 12.69180 0.00000 -3.06433
										CHANNELS 3 Zrotation Xrotation Yrotation
										JOINT LeftHandRing2
										{
											OFFSET 5.62556 0.00000 0.00000
											CHANNELS 3 Zrotation Xrotation Yrotation
											JOINT LeftHandRing3
											{
												OFFSET 3.56744 0.00000 0.00000
												CHANNELS 3 Zrotation Xrotation Yrotation
												End site
												{
													OFFSET 0.00000 0.00000 0.00000
												}
											}
										}
									}
									JOINT LeftHandPinky1
									{
										OFFSET 11.11390 0.00000 -6.03719
										CHANNELS 3 Zrotation Xrotation Yrotation
										JOINT LeftHandPinky2
										{
											OFFSET 4.52789 0.00000 0.00000
											CHANNELS 3 Zrotation Xrotation Yrotation
											JOINT LeftHandPinky3
											{
												OFFSET 2.46976 0.00000 0.00000
												CHANNELS 3 Zrotation Xrotation Yrotation
												End site
												{
													OFFSET 0.00000 0.00000 0.00000
												}
											}
										}
									}
								}
							}
						}
					}
					JOINT pCube4
					{
						OFFSET 0.00000 10.91090 1.10792
						CHANNELS 3 Zrotation Xrotation Yrotation
						End site
						{
							OFFSET 0.00000 0.00000 0.00000
						}
					}
				}
			}
		}
	}
	JOINT RightUpLeg
	{
		OFFSET -9.98441 0.00000 0.00000
		CHANNELS 3 Zrotation Xrotation Yrotation
		JOINT RightLeg
		{
			OFFSET 0.00000 -42.11790 0.00000
			CHANNELS 3 Zrotation Xrotation Yrotation
			JOINT RightFoot
			{
				OFFSET 0.00000 -45.00020 -0.00001
				CHANNELS 3 Zrotation Xrotation Yrotation
				JOINT RightForeFoot
				{
					OFFSET 0.00000 -3.74820 0.00000
					CHANNELS 3 Zrotation Xrotation Yrotation
					JOINT RightToeBase
					{
						OFFSET 0.00000 0.06325 14.43120
						CHANNELS 3 Zrotation Xrotation Yrotation
						End site
						{
							OFFSET 0.00000 0.00000 0.00000
						}
					}
				}
			}
		}
	}
	JOINT LeftUpLeg
	{
		OFFSET 9.98441 0.00000 0.00000
		CHANNELS 3 Zrotation Xrotation Yrotation
		JOINT LeftLeg
		{
			OFFSET 0.00000 -42.11800 0.00000
			CHANNELS 3 Zrotation Xrotation Yrotation
			JOINT LeftFoot
			{
				OFFSET 0.00000 -45.00070 0.00000
				CHANNELS 3 Zrotation Xrotation Yrotation
				JOINT LeftForeFoot
				{
					OFFSET 0.00000 -3.74824 0.00000
					CHANNELS 3 Zrotation Xrotation Yrotation
					JOINT LeftToeBase
					{
						OFFSET 0.00000 0.06325 14.43110
						CHANNELS 3 Zrotation Xrotation Yrotation
						End site
						{
							OFFSET 0.00000 0.00000 0.00000
						}
					}
				}
			}
		}
	}
}
MOTION
Frames: 4
Frame Time: 0.050000
0.00014503186211185272 0.029279803967925667 -0.015809764538128653 -0.035927552923425386 -0.0020073599038864126 -0.027143013349041636 -3.8940567476010233 -0.20277171779196002 -0.682512298035761 -0.8968012032642119 3.491299508650609 0.3537205407736921 -1.3822067036955414 -2.287815633814526 -0.8425430997167787 -0.5507016450714011 0.05932043520913702 -0.8203656683551727 0.40923714306041414 12.770050467616588 0.1614609442118946 0.11189618957452523 -0.07074032725157126 -1.2076536813859184 0.17969950494586806 -14.881556638504568 -0.1151307808967606 -6.9104693132728565 2.5069049614527112 -13.772848431039263 68.49336175264321 0.14084379026884752 23.19917946385191 41.971477655806964 10.986494166350118 92.3106968640281 23.47028646260089 -0.4255767076180745 -5.476648694911725 4.551224280136365 -0.11977389282486281 -1.5643875836723387 -0.03752364522306681 -0.014428705463001078 -56.27655925957387 -0.03806552757783967 0.030866422241560276 -56.251167737375944 -38.72513041692148 0.007926508726736467 0.013893189826265896 0.02802578158480673 -0.03052895890746447 -0.018589208765644523 0.006191815092962499 0.014073391304884974 -0.005386377903967361 -36.69511979046612 -0.04127171350950992 0.0020195644364390296 0.012600999380435636 0.003960041174512578 -0.046052800574560036 0.02706345378926176 -0.028671617979832836 -0.0020926543039306625 -19.777070765585318 -0.038307964842081876 -0.021146034739407522 0.0017949503350680055 0.03909274421675351 0.013186258531813268 -0.047296866613296164 -0.010895070929514928 0.00791430899960282 24.097734604941593 -0.010961188305290465 0.014698766154901318 28.91388512529689 -0.01886063650591427 -0.035367497548298606 28.864446496459742 -0.045063111503844344 0.04886188507590687 5.009363714332738 1.2592644089902245 11.511638426097104 -67.90722825393406 28.361159445367388 -7.211708232911418 -2.7140313274665107 -2.636865131066645 -49.07293892245498 -15.82740796063735 3.261494659318245 0.9059574399213489 -0.49006036615957194 0.07510585174431393 -8.15135630783153 0.011223368614558962 0.018490077829072547 44.55747252244481 8.046664143960423e-05 0.017759619008327693 44.610252120084446 12.48506996560801 0.03787627090245725 -0.006131060895103269 0.012530370835423531 -0.03475965510635705 -0.03418556226332263 -0.034062971887438016 0.03420231885935693 -0.028487522926827775 11.102960340595043 0.038357162447630294 -0.02874787295935602 -0.042709294656599714 0.024633426412921683 -0.03339049104304775 -0.025454473055369204 -0.048369316207904564 -0.02179599641857095 4.7332019892970205 0.03594259203770885 0.01604855890694832 0.007847618011469402 -0.038954599180306464 0.02779931218421317 -0.015706579248105392 0.030623771643465258 0.007111493097393488 -5.6458090095349815 -0.026323661193221718 0.004411901829424683 -6.694557305225579 0.020828066624299275 0.04377040635089221 -6.719291080120775 -0.013317659015554097 -0.010483242420789575 -0.006490897981533437 0.015134084991802311 -0.020116639994647273 8.030636170888023 3.5355106536653484 -19.226482378864794 -0.02023318962842393 10.40530788326053 0.027395133688246157 -5.612531521302026 -15.626382044046707 3.2068241625597196 -0.029905189087369503 0.02665018055837542 -0.009448771808390362 0.009226494562786954 4.676721925469315 -0.012378643179350701 12.478189667768978 -8.26420243337389 6.926141283755273 0.01307119075686008 46.42910439758097 0.025386632179665324 -4.316367175202096 -14.6993638290069 -3.794479310102767 0.01356348575554565 -0.04612777258752181 -0.018212624581446405 -0.0014989401309720457 -10.785524331262367 0.026179741307031212 
0.017974053204522607 -0.021114225328547773 0.025075290122704798 -0.01951033089177097 0.00895339458913916 -0.015328361803425079 -3.900825962922257 -0.36485694332603746 -0.688349950734243 -0.9560927390143338 3.5389162692086247 0.3976384455774416 -1.3862601589466836 -2.355759916650319 -0.8645320303659386 -0.4906600910612081 0.04114093491988402 -0.820494932168152 0.4529120527474679 12.737879126324323 0.07871598563409794 0.12824878088681935 -0.058507713851543276 -1.4176742103930966 0.209037113526479 -14.829719773594132 -0.14113168546914448 -6.820082773174897 2.495645696530046 -13.944048949230357 68.05176569544102 -0.535114030283051 22.31351432598196 43.073929111962286 11.032156317224791 91.73538045845709 22.995554254411402 -0.36522860182101086 -5.4655580525101035 4.529887657664183 -0.0893076953455955 -1.6084447983073082 0.014697271380195928 0.02259442144230606 -56.275332378992054 0.008532394708533902 0.039396341711779255 -56.23761100997893 -38.815403093392064 0.046413886814264914 0.01545655707095077 0.014497920645405503 0.003080722646243211 -0.020885601693545024 0.011688494653802329 -0.03551014848217724 0.01816129152690346 -36.686831113147065 0.021116779761869892 0.017298338715985632 0.00449619296604356 -0.03001029572948745 0.001580700142237939 0.003384371828257821 -0.023672928352167628 -0.004577189498707166 -19.76056415804258 0.04461760238918328 0.031076429892341068 -0.00380518369168256 0.001804550062219471 -0.00869921979563338 0.011595075259341194 -0.01917388611589647 0.009529229906948515 24.092087685148496 0.01780995669173276 -0.027066558149194092 28.865718503352383 -0.049802513711767395 -0.008523022164794234 28.900903571074668 0.02783699719326025 0.030170372157893248 4.733906182723302 1.193275767033318 11.622678288269418 -68.77225388077322 28.422885945954672 -5.6657856674021625 -2.9658896805946133 -2.7393780964526657 -46.64887448315777 -15.537882378223408 3.9601850898415814 0.34264269929565955 -0.47293607895664724 0.09593938775967455 -8.150407923388713 0.009281895685035282 0.03617423614595294 44.546927270552324 -0.0437259958927364 0.012658015936074228 44.53467689187646 12.488193606187208 0.03356124650694859 0.039647961569766306 0.03888200880884537 -0.007017058582370483 0.024196571508416725 0.03483854326956804 0.016663231686742823 -0.019901902126928057 11.079109842128917 -0.04022518895695022 -0.031517984959845015 -0.0048768181732932545 -0.048910910416085654 0.01140965508120545 -0.006867299939384167 -0.04161632629999873 -0.01897665799918181 4.73070640167365 -0.0045286883813568735 0.020284726431978158 0.00034725845572205436 0.043383527866251874 -0.00769074353449018 0.009388891708738543 -0.04679362037311638 -0.008201360649175793 -5.592216489423872 0.009711276612440084 -0.02876724914403636 -6.6855911497085865 0.04746327709536336 0.01595226898434123 -6.711669820283851 0.013869504918519576 0.049828468032368706 -0.028058419981742685 0.04731324315596811 -0.03788019335059292 8.0683426665191 3.539527125395499 -19.195760526658567 -0.0020176669056222968 10.396752954879934 -0.020851156630181823 -5.57434479218993 -15.679840673169457 3.2281538420099585 0.04414610394241675 -0.02158195811111693 0.009260417901000554 -0.015007376684969854 4.66367766780005 0.025041472929578312 12.491629911653316 -8.258585144206371 6.909968971546486 0.026514464663775043 46.33387561285432 0.012093050654076058 -4.342709190523031 -14.787965859670908 -3.8017234040296985 -0.01139742508597456 0.005967228636107783 0.0027024333447092748 0.012429738713677089 -10.731905383586128 0.004711273490558565 
-0.021652543554946075 -0.030422766209248782 -0.004320201747860086 -0.01457984479436324 0.029151873141297947 -0.048462924258035285 -3.8593723813748406 -0.5852197357689335 -0.6865020010701812 -0.9391934600699126 3.5184618882063985 0.367074765110452 -1.422481355338231 -2.371793422840608 -0.8690108402692706 -0.39214858191240237 -0.009142494557782564 -0.7871001243101102 0.5525001265473406 12.678387064044239 0.011538832370638021 0.1527266391646344 0.05571770484077383 -1.5512498855047359 0.2246113664866697 -14.784006596012818 -0.10658607359714171 -6.82148205291108 2.445228656671759 -14.112453358865388 67.60091811917219 -1.3359056570821002 21.418073024362112 43.445479248923675 11.191819115650109 91.02809649466533 22.67876048063157 -0.39912998410611655 -5.512989319404762 4.5365934697515415 -0.1517457908601268 -1.6218921754910285 -0.04489676155883427 0.04716527892134503 -56.20765541692772 0.02069813888243225 0.005264709647197415 -56.26489375047474 -38.761274312094166 -0.0018992065344928459 -0.04153457150993374 -0.04289260961015767 0.030232334813492155 0.03766406993330803 0.012848213811764373 0.0008372672102781259 0.014460815529821397 -36.680915396668574 0.038447691618820924 0.025265584607647624 -0.002672373359832359 0.039811721885012176 0.004863853390462753 0.01986328882916523 -0.03847022516577785 -0.020073972558683543 -19.7695998250312 0.020797190873948525 -0.001225923784716711 0.00600898752074922 0.025020096761873983 0.0005635555096915628 -0.03765208983309312 0.01379765262727385 0.04795468589503774 24.097448104137413 -0.03765414569394854 0.030025906601127826 28.87881546251162 0.024826566255005254 0.0486096368999484 28.86714528074381 0.0017444897275154057 -0.0057990946050159925 4.4468006994037 1.164952824401785 11.749832933340924 -69.09036626078087 28.438107005342694 -4.550041153356138 -3.0889946219687032 -2.8991093786201714 -44.99403983635418 -15.28932634000323 4.358026309896721 0.04481437389301382 -0.44370773973351885 0.03339361308851968 -8.13141637319347 -0.03489032917776354 0.02392312606516451 44.54669468996821 0.017260730934525712 -0.02563861314702131 44.55574097256652 12.481841965488355 0.024959144490677973 -0.025421512515348056 0.010638053989539322 -0.00819670116407821 -0.03481455350945428 0.035250381544486085 -0.00861517497466235 -0.028233040691390227 11.099216841166497 0.03401568387705964 -0.049088812001102745 -0.013310114325319864 0.008423642589524815 0.004391196411880163 0.029628213394112486 -0.0354850139192965 -0.043128288009099035 4.776765942979989 0.030052314437302517 -0.04433479627805915 0.038537677669093655 -0.00915959175822293 -0.005901682362606291 0.019311184096573307 0.01900270882367725 -0.02876458347981187 -5.572581584117731 -0.03070558456556049 0.01027991589692834 -6.693408507422341 0.009783212589022575 0.02949710541641519 -6.767326949129562 -0.03511272552310982 0.019471609315434978 -0.0034424753320827063 -0.016030848200121992 0.022068108024094406 8.092741071642298 3.4945457373149202 -19.219247310376755 -0.0277410537495139 10.38798395979674 0.006408924740240535 -5.582611004089617 -15.673388936766209 3.2238408547042656 -0.020645237247249416 0.02056402725718408 0.010081250948897464 0.03659356172383388 4.676060813025551 -0.025642506325271753 12.435675405472217 -8.218833061248304 6.836418292446235 0.0006348811570133274 46.381023550384064 -0.027972047919748937 -4.334895883249109 -14.74545485422087 -3.80761325484315 -0.030722407122751268 0.01608827051482411 -0.018394662703860525 -0.014942267600753635 -10.712438208015824 -0.002183991540966773 
0.009280068418916522 -0.01759306504807969 -0.04916063322847165 0.01807442227947595 -0.046663297300004465 -0.003725893001305436 -3.8761137574787465 -0.6556534461596017 -0.6804072470672939 -0.9278607673276248 3.485681138010544 0.36491471324084435 -1.4414203214248293 -2.351986832471396 -0.9025264031828667 -0.43306437944526943 0.022014267187039357 -0.7905182826652544 0.5877473486161878 12.743407626894674 -0.090453015958426 0.14365175154352877 0.11585005591869481 -1.6226207794842757 0.2944224188869848 -14.604512339468805 -0.08336576826930867 -6.692351850729021 2.442764847010124 -14.244310296063288 67.0007044040623 -1.9176196430827388 20.686464848536158 42.793000885647686 10.948927008712584 90.40707547537849 22.22941487047861 -0.43460098857075913 -5.407167507857306 4.547202569351078 -0.09852591388141332 -1.6035327917627165 -0.027749101092254418 -0.02907193918944185 -56.26505489932322 0.04229357599414371 -0.023403943968197945 -56.21176667508848 -38.773215154237036 0.007837735981477814 0.03868602564639463 0.005774252170079569 0.029897932219402432 0.04149628011758306 0.03414835994691569 0.0009000104772499914 0.014760769424266525 -36.70641902658972 -0.029644423432740197 0.003850526939111777 -0.024644391754378405 -0.032349117697465214 0.01844500351695042 0.015118867336360989 -0.015226342358711195 -0.00707774033241997 -19.713072561328357 -0.037644327014865066 0.016233006861629137 0.012860186128540714 0.01175116393743164 0.04108351817123452 0.0016865403041277237 0.013941872989882321 -0.048631967304084124 24.03537056415 0.03897580274505545 -0.007361854597213096 28.867478740236 -0.015736458683399016 -0.022261643063825724 28.900951918503083 0.0051831433085128805 -0.019537963109557688 4.35453689070707 1.1276405652032815 11.792378082340187 -69.12927505506856 28.24551974668817 -4.0564354993741985 -3.307971490623645 -3.1085763342772643 -44.30538533257761 -15.019227558153894 4.391065255453362 -0.11171214721572417 -0.46109279895408134 0.04950668250337681 -8.102120573217773 -0.009823786617977474 0.008836810298370888 44.52625011996918 0.011623676438688058 0.04964465559584069 44.595241741005566 12.454530763456951 0.042982151405576464 0.010626239971255912 -0.040015583989734496 -0.010620213048874231 -0.02491271699595054 0.010958610694856276 0.03715824479221905 0.037988020623681604 11.129410161419123 -0.026455265434032624 0.015381634539831466 0.01733400559522979 -0.03711029023313197 -0.007525218438324834 -0.04117617615376848 -0.03261728704809988 0.0008464353236911075 4.766204020482896 0.0480958737336229 -0.010101277532672584 -0.0012496226901927553 0.021360053568668345 -0.041038594543474444 -0.04671044185356765 0.04936101621326529 0.01805796144545287 -5.621215064474083 0.0014694437851908843 0.015850716332707956 -6.7158273742505745 0.04087599664869442 -0.04567384287737997 -6.730034839355571 0.002622269426255328 0.02997843466854124 0.02418474632488167 -0.04180360842196084 -0.04118369777210743 8.083874934430622 3.521676240310111 -19.24101288511182 0.010136827739531744 10.394899368415492 0.017905040900548935 -5.623530728342866 -15.680532603438799 3.1521940723385704 -0.019213416367228495 -0.013920501368263598 -0.026263628287425407 0.01585423135618982 4.731066175557796 0.012171572798449798 12.414899257652086 -8.255409389735586 6.886864243322706 0.01083354103793103 46.40501755590651 0.02580889970845967 -4.2871119334270515 -14.746530622587196 -3.865859587869181 0.033493760841566945 -0.013203812901180903 -0.017690880944860574 -0.00630844231316931 -10.72101138490199 -0.04298199252939505 
